HIERARCHY
ROOT Hips
{
	OFFSET 0.000000 0.000000 0.000000
	CHANNELS 6 Xposition Yposition Zposition Zrotation Yrotation Xrotation 
	JOINT LHipJoint
	{
		OFFSET 0.000000 0.000000 0.000000
		CHANNELS 3 Zrotation Yrotation Xrotation
		JOINT LeftUpLeg
		{
			OFFSET 1.363060 -1.794630 0.839290
			CHANNELS 3 Zrotation Yrotation Xrotation
			JOINT LeftLeg
			{
				OFFSET 2.448110 -6.726130 0.000000
				CHANNELS 3 Zrotation Yrotation Xrotation
				JOINT LeftFoot
				{
					OFFSET 2.562200 -7.039590 0.000000
					CHANNELS 3 Zrotation Yrotation Xrotation
					JOINT LeftToeBase
					{
						OFFSET 0.157640 -0.433110 2.322550
						CHANNELS 3 Zrotation Yrotation Xrotation
						End Site
						{
							OFFSET 0.000000 0.000000 0.000000
						}
					}
				}
			}
		}
	}
	JOINT RHipJoint
	{
		OFFSET 0.000000 0.000000 0.000000
		CHANNELS 3 Zrotation Yrotation Xrotation
		JOINT RightUpLeg
		{
			OFFSET -1.305520 -1.794630 0.839290
			CHANNELS 3 Zrotation Yrotation Xrotation
			JOINT RightLeg
			{
				OFFSET -2.542530 -6.985550 0.000000
				CHANNELS 3 Zrotation Yrotation Xrotation
				JOINT RightFoot
				{
					OFFSET -2.568260 -7.056230 0.000000
					CHANNELS 3 Zrotation Yrotation Xrotation
					JOINT RightToeBase
					{
						OFFSET -0.164730 -0.452590 2.363150
						CHANNELS 3 Zrotation Yrotation Xrotation
						End Site
						{
							OFFSET 0.000000 0.000000 0.000000
						}
					}
				}
			}
		}
	}
}
MOTION
Frames: 33
Frame Time: 0.008333
5.858509 16.505689 -7.789969 -176.788071 29.634530 -169.533699 -12.978835 4.330517 0.865190 -5.743294 1.600228 1.866058 -1.151280 2.330073 34.712553 -0.139411 -4.959236 -2.912423 -0.191299 0.000000 -66.256399 7.109895 -0.584007 3.006126 9.036230 8.547680 -37.485081 1.749877 -1.928065 32.846990 -0.342093 -0.672886 -2.094803 -0.410800 0.000000 -38.131101
5.941319 16.476815 -7.896545 -176.282624 28.937753 -169.542808 -13.210150 4.372255 0.743788 -4.525611 2.386092 0.807529 -0.933575 2.525169 37.356567 -0.142866 -5.581100 -1.396238 -0.361699 0.000000 -68.636800 7.041353 -0.656851 2.839643 9.836422 8.214957 -37.343592 1.734255 -2.045304 34.496172 -0.452415 -1.006713 -3.411097 -0.380900 0.000000 -37.778301
6.020130 16.449680 -7.998261 -175.711728 28.224082 -169.557486 -13.452843 4.388648 0.597151 -3.224048 3.208107 -0.336082 -0.697953 2.724127 40.122008 -0.112020 -6.033152 0.217916 -0.574300 0.000000 -70.081300 6.955018 -0.735853 2.651771 10.728182 7.864278 -37.044845 1.741427 -2.144556 35.939233 -0.564532 -1.342827 -4.742788 -0.334300 0.000000 -37.354400
6.095678 16.424697 -8.094943 -175.102698 27.494885 -169.587339 -13.693459 4.375912 0.431458 -1.895335 4.021702 -1.545359 -0.450470 2.925649 42.977075 -0.041557 -6.184752 1.862776 -0.798700 0.000001 -70.398000 6.857767 -0.818494 2.447454 11.676995 7.494746 -36.590194 1.765972 -2.224560 37.150477 -0.678269 -1.686041 -6.038607 -0.273400 0.000001 -36.855700
6.168648 16.402446 -8.186709 -174.475012 26.751596 -169.634293 -13.923399 4.331759 0.253199 -0.579852 4.798382 -2.813248 -0.197449 3.128995 45.893987 0.069466 -5.925855 3.455253 -0.985200 0.000000 -69.433201 6.753064 -0.903399 2.235857 12.656342 7.118710 -35.989375 1.802783 -2.283967 38.109230 -0.795393 -2.054154 -7.251124 -0.202500 -0.000000 -36.288600
6.239727 16.383522 -8.273972 -173.849630 25.996406 -169.699632 -14.134161 4.256159 0.069432 0.678061 5.515455 -4.134114 0.054368 3.333562 48.842256 0.218924 -5.175095 4.893035 -1.072600 -0.000000 -67.010600 6.646125 -0.988164 2.026167 13.634486 6.746356 -35.262161 1.846485 -2.322627 38.812541 -0.917412 -2.462482 -8.346597 -0.125200 0.000000 -35.667200
6.309585 16.368637 -8.357323 -173.245260 25.232645 -169.779723 -14.320598 4.150999 -0.114001 1.845304 6.162614 -5.510179 0.298297 3.539431 51.796423 0.401435 -3.903329 6.042886 -1.004800 0.000000 -62.751700 6.540236 -1.070579 1.828276 14.585932 6.394345 -34.435350 1.892452 -2.340964 39.266754 -1.046398 -2.928110 -9.303378 -0.045000 0.000000 -35.016000
6.378757 16.358458 -8.437324 -172.680982 24.463057 -169.876275 -14.476777 4.020632 -0.291597 2.886415 6.735519 -6.935856 0.529749 3.745531 54.713855 0.611758 -2.127776 6.794797 -0.755001 -0.000000 -56.698300 6.441681 -1.147863 1.649345 15.481544 6.071005 -33.534851 1.936479 -2.340537 39.492234 -1.183263 -3.459013 -10.115480 0.036200 0.000000 -34.357401
6.447585 16.353674 -8.514742 -172.166444 23.691184 -169.983673 -14.601189 3.870076 -0.459291 3.783369 7.238097 -8.409592 0.745213 3.950513 57.550456 0.842623 0.067469 7.043776 -0.342101 -0.000000 -48.891100 6.352783 -1.218565 1.495780 16.305613 5.790181 -32.586214 1.976218 -2.323030 39.510676 -1.329231 -4.062160 -10.786390 0.116100 -0.000000 -33.718099
6.516379 16.354852 -8.590138 -171.711080 22.921573 -170.099945 -14.692804 3.704935 -0.612233 4.523017 7.670624 -9.920657 0.943189 4.150443 60.245619 1.088453 2.553120 6.772576 0.168200 -0.000000 -40.013800 6.275994 -1.281570 1.370853 17.046447 5.560099 -31.608702 2.010243 -2.290479 39.347340 -1.484630 -4.736611 -11.329088 0.193200 0.000001 -33.117600
6.585177 16.362416 -8.664164 -171.319940 22.157956 -170.220501 -14.751701 3.530424 -0.744285 5.096199 8.022959 -11.452636 1.123508 4.338868 62.735164 1.345658 5.174603 6.079365 0.689300 0.000000 -31.344400 6.213041 -1.335797 1.274056 17.696843 5.382458 -30.618647 2.038494 -2.244992 39.027761 -1.648423 -5.471771 -11.762814 0.266700 -0.000000 -32.568100
6.653824 16.376555 -8.737283 -170.995111 21.403071 -170.343024 -14.778670 3.352282 -0.849550 5.499042 8.281500 -12.989434 1.285926 4.509540 64.978700 1.607329 7.767786 5.101633 1.145600 -0.000000 -23.955600 6.165681 -1.381099 1.202693 18.252434 5.250085 -29.627775 2.061872 -2.188643 38.576357 -1.818069 -6.248246 -12.109625 0.336000 -0.000000 -32.072400
6.722246 16.397176 -8.809813 -170.739349 20.659185 -170.467838 -14.774841 3.176463 -0.925580 5.733762 8.441661 -14.519095 1.429515 4.658215 66.961337 1.861103 10.178562 3.955931 1.486500 -0.000000 -18.386000 6.135818 -1.417900 1.152096 18.711407 5.147460 -28.642645 2.081899 -2.123220 38.014256 -1.989490 -7.039048 -12.391900 0.401200 -0.000000 -31.624300
6.790152 16.423939 -8.882050 -170.550988 19.929029 -170.594365 -14.742288 3.007701 -0.975913 5.810388 8.515810 -16.035189 1.551918 4.783902 68.685518 2.089480 12.271422 2.683420 1.679401 0.000000 -14.325600 6.124258 -1.446860 1.115458 19.076033 5.054473 -27.664731 2.100810 -2.050091 37.356877 -2.157451 -7.813273 -12.628626 0.462500 0.000000 -31.210300
6.857325 16.456204 -8.954081 -170.426717 19.216070 -170.727547 -14.683317 2.849666 -1.005801 5.745203 8.525259 -17.527461 1.650650 4.886402 70.154742 2.276482 13.946128 1.315763 1.712200 0.000000 -11.325500 6.131189 -1.469596 1.085783 19.352382 4.948071 -26.685786 2.121041 -1.970155 36.612333 -2.316151 -8.540249 -12.833021 0.520300 0.000000 -30.815400
6.923493 16.493123 -9.025950 -170.360820 18.524969 -170.874128 -14.600319 2.704587 -1.021433 5.554592 8.493210 -18.981809 1.723400 4.965879 71.370044 2.410635 15.143395 -0.101179 1.598301 0.000000 -9.066400 6.156537 -1.487577 1.055030 19.546805 4.803195 -25.692468 2.144994 -1.883998 35.783725 -2.459277 -9.190063 -13.012179 0.574200 0.000000 -30.423199
6.988456 16.533823 -9.097668 -170.343472 17.860962 -171.037248 -14.497531 2.572231 -1.029150 5.265141 8.445417 -20.386598 1.768496 5.023359 72.333172 2.485455 15.841180 -1.509326 1.372200 -0.000000 -7.368000 6.196322 -1.502951 1.017473 19.675421 4.606649 -24.666447 2.175112 -1.791275 34.861008 -2.582739 -9.747191 -13.161340 0.621900 0.000001 -30.029600
7.052218 16.577262 -9.169294 -170.373287 17.229754 -171.222511 -14.376528 2.452565 -1.035883 4.886348 8.402201 -21.726902 1.784638 5.059900 73.044729 2.500317 16.059310 -2.847816 1.082200 -0.000000 -6.146800 6.251159 -1.515550 0.964752 19.738395 4.336429 -23.595712 2.212303 -1.692133 33.843398 -2.680968 -10.189843 -13.277179 0.661501 0.000000 -29.628100
7.114778 16.622545 -9.240822 -170.442024 16.636000 -171.433361 -14.240963 2.343874 -1.046449 4.439839 8.385084 -22.992368 1.772176 5.076918 73.508990 2.459412 15.846423 -4.059591 0.778000 -0.000000 -5.376700 6.317423 -1.526985 0.894416 19.747871 3.988432 -22.464357 2.257334 -1.585984 32.718666 -2.751947 -10.516148 -13.344572 0.688300 -0.000000 -29.230400
7.176248 16.668749 -9.312456 -170.547623 16.086233 -171.668754 -14.094047 2.244370 -1.065093 3.935160 8.411965 -24.178479 1.732412 5.076232 73.732923 2.372257 15.282950 -5.099943 0.500500 0.000000 -5.050500 6.393092 -1.537181 0.804572 19.705740 3.560068 -21.269296 2.309479 -1.472536 31.485286 -2.794019 -10.724351 -13.352091 0.698800 0.000000 -28.849601
7.236693 16.715097 -9.384438 -170.686021 15.585440 -171.926269 -13.938588 2.151612 -1.094793 3.381757 8.498156 -25.284337 1.667904 5.059503 73.726034 2.252347 14.470702 -5.942943 0.275300 -0.000000 -5.146600 6.476155 -1.546206 0.696332 19.614217 3.057118 -20.010884 2.367343 -1.351636 30.143361 -2.807452 -10.821699 -13.287227 0.689600 0.000000 -28.507200
7.296392 16.760945 -9.457065 -170.855640 15.147840 -172.193658 -13.775229 2.064517 -1.141906 2.784756 8.658795 -26.316615 1.580874 5.031546 73.501335 2.115593 13.524175 -6.587983 0.110400 0.000000 -5.595400 6.566506 -1.549211 0.568478 19.473911 2.493757 -18.699837 2.427902 -1.223013 28.702580 -2.793582 -10.818305 -13.141749 0.658900 0.000000 -28.225700
7.355491 16.805703 -9.530690 -171.052877 14.789159 -172.455190 -13.604213 1.983026 -1.211101 2.148813 8.906550 -27.288536 1.473542 4.997776 73.075760 1.978020 12.557166 -7.060318 -0.000900 0.000000 -6.278300 6.663921 -1.540694 0.422273 19.286345 1.890945 -17.355372 2.487711 -1.086825 27.182260 -2.755113 -10.727407 -12.914780 0.607300 0.000000 -28.024000
7.414018 16.848982 -9.605432 -171.276843 14.485136 -172.728639 -13.424913 1.901548 -1.293226 1.473474 9.239110 -28.190280 1.351259 4.949250 72.466065 1.853809 11.672649 -7.406311 -0.073200 0.000000 -7.029001 6.771273 -1.533149 0.274354 19.044605 1.254155 -15.986891 2.546284 -0.947763 25.603340 -2.694413 -10.558803 -12.613389 0.537800 -0.000000 -27.918401
7.472089 16.890335 -9.681814 -171.525586 14.240015 -172.998030 -13.239173 1.817871 -1.386674 0.763578 9.657407 -29.040825 1.216204 4.887655 71.694449 1.753207 10.947244 -7.684242 -0.122901 0.000000 -7.682300 6.886439 -1.527358 0.133202 18.754056 0.610487 -14.626111 2.601452 -0.807932 23.997351 -2.616160 -10.327309 -12.252561 0.455500 0.000000 -27.912800
7.529538 16.929554 -9.760067 -171.794963 14.054825 -173.256031 -13.047065 1.730910 -1.490542 0.021979 10.156988 -29.845372 1.069825 4.813721 70.777200 1.682349 10.429431 -7.951048 -0.164700 0.000001 -8.098000 7.009864 -1.524084 0.004357 18.415531 -0.020161 -13.295363 2.651551 -0.670190 22.396275 -2.524012 -10.042745 -11.850311 0.366100 -0.000000 -28.006700
7.586320 16.966452 -9.840331 -172.085630 13.932246 -173.497187 -12.849538 1.640546 -1.603568 -0.746237 10.729630 -30.607049 0.912905 4.728742 69.729211 1.643238 10.135793 -8.253189 -0.209800 -0.000000 -8.192800 7.140944 -1.523704 -0.108969 18.031174 -0.621744 -12.014736 2.695264 -0.537465 20.833782 -2.421289 -9.710878 -11.429547 0.276400 0.000000 -28.191000
7.642146 17.000829 -9.922610 -172.393226 13.872878 -173.716327 -12.648160 1.546665 -1.723506 -1.532257 11.363555 -31.328773 0.746414 4.633790 68.563734 1.634596 10.054523 -8.618751 -0.265700 0.000000 -7.949200 7.277974 -1.526755 -0.204409 17.607117 -1.179491 -10.800869 2.732271 -0.412348 19.339396 -2.311360 -9.337726 -11.012868 0.192100 -0.000000 -28.449700
7.696776 17.032545 -10.006835 -172.713378 13.875492 -173.909747 -12.445009 1.449069 -1.847452 -2.323747 12.044665 -32.012485 0.571666 4.529673 67.292218 1.652703 10.152069 -9.054410 -0.336800 0.000000 -7.409700 7.418384 -1.533796 -0.280629 17.152209 -1.681057 -9.665044 2.762881 -0.296774 17.935280 -2.197394 -8.929676 -10.619555 0.117799 -0.000000 -28.763100
7.749902 17.061384 -10.092796 -173.040644 13.936809 -174.075875 -12.242355 1.347811 -1.972518 -3.107319 12.757208 -32.658406 0.390478 4.417287 65.925328 1.692252 10.382132 -9.547381 -0.424000 0.000001 -6.660600 7.559628 -1.544882 -0.338642 16.675471 -2.120639 -8.612553 2.787773 -0.192062 16.637222 -2.081955 -8.492296 -10.264984 0.056400 -0.000000 -29.109201
7.801365 17.087157 -10.180182 -173.372139 14.051388 -174.215933 -12.042036 1.243191 -2.096014 -3.870968 13.483929 -33.265560 0.205194 4.297455 64.473390 1.747059 10.694494 -10.069479 -0.524500 0.000000 -5.812600 7.700049 -1.559538 -0.381761 16.184500 -2.500886 -7.644068 2.807720 -0.098995 15.454590 -1.966624 -8.028709 -9.959779 0.009400 -0.000000 -29.468400
7.850814 17.109659 -10.268843 -173.701599 14.226441 -174.319231 -11.848470 1.137805 -2.217966 -4.599708 14.212143 -33.844951 0.016810 4.176311 62.947278 1.810766 11.041724 -10.584871 -0.631800 -0.000000 -4.976900 7.832674 -1.571155 -0.416173 15.693865 -2.812283 -6.758660 2.823047 -0.015423 14.385578 -1.854321 -7.552632 -9.705522 -0.024499 -0.000000 -29.819899
7.898406 17.128891 -10.358213 -174.033773 14.440875 -174.399974 -11.660903 1.031837 -2.334071 -5.292692 14.917980 -34.383891 -0.171154 4.051047 61.352162 1.877780 11.388600 -11.055202 -0.737400 -0.000001 -4.241400 7.961666 -1.581756 -0.447819 15.196999 -3.085411 -5.947082 2.834249 0.057498 13.429172 -1.743497 -7.057467 -9.501201 -0.046300 -0.000000 -30.160100
